<?xml version="1.0" standalone="no"?><!DOCTYPE svg PUBLIC "-//W3C//DTD SVG 1.1//EN" "http://www.w3.org/Graphics/SVG/1.1/DTD/svg11.dtd"><svg t="1623998025806" class="icon" viewBox="0 0 1024 1024" version="1.1" xmlns="http://www.w3.org/2000/svg" p-id="3471" xmlns:xlink="http://www.w3.org/1999/xlink" width="200" height="200"><defs><style type="text/css"></style></defs><path d="M512.165 0.315a511.835 511.835 0 1 0 511.52 511.835A512.229 512.229 0 0 0 512.165 0.315z m208.671 669.323a36.537 36.537 0 1 1-51.734 51.616L512.008 563.767 354.52 719.797a36.537 36.537 0 1 1-51.38-51.97l157.487-155.834L303.77 354.505a36.537 36.537 0 1 1 51.734-51.617L512.56 460.376l157.488-156.07a36.537 36.537 0 0 1 51.38 52.01L563.939 512.11z m0 0" fill="#d81e06" p-id="3472"></path></svg>